<!-- Generator: Adobe Illustrator 19.0.0, SVG Export Plug-In  -->
<svg version="1.1"
	 xmlns="http://www.w3.org/2000/svg" xmlns:xlink="http://www.w3.org/1999/xlink" xmlns:a="http://ns.adobe.com/AdobeSVGViewerExtensions/3.0/"
	 x="0px" y="0px" width="382.415px" height="70.442px" viewBox="0 0 382.415 70.442"
	 style="enable-background:new 0 0 382.415 70.442;" xml:space="preserve">
<style type="text/css">
	.st0{fill:#0071BB;}
	.st1{fill:#FFFFFF;}
</style>
<defs>
</defs>
<polygon id="XMLID_68_" class="st0" points="39.031,70.442 39.049,70.427 39.003,70.406 "/>
<g id="XMLID_45_">
	<path id="XMLID_66_" class="st1" d="M71.029,54.209l1.178-5.552h9.77c0.166,0.042,0.388-0.067,0.667-0.326
		c0.279-0.258,0.47-0.563,0.574-0.915c0.021-0.062,0.108-0.326,0.264-0.791c0.155-0.465,0.352-1.054,0.589-1.768
		c0.237-0.713,0.506-1.515,0.806-2.404c0.3-0.889,0.605-1.788,0.915-2.698c0.724-2.15,1.551-4.58,2.481-7.289h8.839l-4.9,16.624
		c-0.145,0.455-0.321,0.977-0.527,1.566c-0.207,0.589-0.455,1.143-0.745,1.659c-0.29,0.517-0.625,0.957-1.008,1.318
		c-0.383,0.362-0.812,0.543-1.287,0.543L71.029,54.209z"/>
	<path id="XMLID_64_" class="st1" d="M96.647,54.209l1.178-5.552h9.77c0.166,0.042,0.388-0.067,0.667-0.326
		c0.279-0.258,0.47-0.563,0.574-0.915c0.021-0.062,0.108-0.326,0.264-0.791c0.155-0.465,0.352-1.054,0.589-1.768
		c0.237-0.713,0.506-1.515,0.806-2.404c0.3-0.889,0.605-1.788,0.915-2.698c0.724-2.15,1.551-4.58,2.481-7.289h8.839l-4.9,16.624
		c-0.145,0.455-0.321,0.977-0.527,1.566c-0.207,0.589-0.455,1.143-0.745,1.659c-0.29,0.517-0.625,0.957-1.008,1.318
		c-0.383,0.362-0.812,0.543-1.287,0.543L96.647,54.209z"/>
	<path id="XMLID_62_" class="st1" d="M172.726,49.773c-0.124,0.497-0.352,1.003-0.683,1.52c-0.331,0.517-0.719,0.987-1.163,1.411
		c-0.445,0.424-0.92,0.775-1.427,1.055c-0.507,0.279-0.998,0.418-1.473,0.418h-27.138l1.333-4.404h19.322
		c0.496,0,0.951-0.139,1.365-0.418c0.413-0.279,0.765-0.615,1.055-1.008c0.144-0.187,0.284-0.45,0.418-0.791
		c0.134-0.341,0.253-0.687,0.356-1.039c0.104-0.393,0.207-0.816,0.311-1.271h-15.88c-0.724,0-1.432-0.072-2.125-0.217
		c-0.693-0.145-1.277-0.372-1.752-0.682c-0.476-0.31-0.796-0.703-0.961-1.179c-0.166-0.476-0.073-1.044,0.279-1.706l1.551-5.18
		c0.186-0.724,0.501-1.328,0.946-1.814c0.444-0.485,0.951-0.878,1.52-1.178c0.568-0.3,1.178-0.512,1.83-0.636
		s1.277-0.186,1.876-0.186h25.618l-1.396,4.652l-17.12,0.031c-0.993-0.042-1.752,0.052-2.28,0.279
		c-0.527,0.228-0.915,0.641-1.163,1.241l-0.682,2.233h15.817c0.517,0,1.013,0.047,1.489,0.14c0.476,0.093,0.884,0.259,1.225,0.496
		c0.341,0.238,0.589,0.543,0.744,0.915c0.155,0.372,0.16,0.837,0.016,1.396L172.726,49.773z"/>
	<path id="XMLID_59_" class="st1" d="M182.96,32.498l27.448-0.031l-1.644,5.428h-17.523l-3.04,10.111
		c-0.042,0.166-0.005,0.367,0.108,0.604c0.113,0.238,0.253,0.357,0.419,0.357c0.103,0,0.434,0,0.992,0
		c0.559,0,1.256-0.005,2.094-0.016c0.837-0.01,1.772-0.02,2.807-0.031c1.034-0.01,2.078-0.016,3.132-0.016
		c1.055,0,2.078-0.005,3.071-0.016c0.992-0.01,1.866-0.016,2.621-0.016c0.754,0,1.349,0.005,1.783,0.016
		c0.435,0.011,0.621,0.026,0.559,0.046l-1.551,5.242h-22.92c-0.248,0-0.517-0.041-0.807-0.124c-0.29-0.083-0.574-0.196-0.853-0.341
		c-0.279-0.145-0.533-0.31-0.76-0.496s-0.414-0.382-0.558-0.589c-0.29-0.455-0.548-0.961-0.775-1.52
		c-0.228-0.559-0.258-1.096-0.093-1.613L182.96,32.498z M192.73,40.562h13.925l-1.799,4.838h-13.863L192.73,40.562z"/>
	<path id="XMLID_57_" class="st1" d="M213.944,32.467h27.355l-1.644,5.428h-17.523l-3.04,10.111
		c-0.042,0.166-0.005,0.367,0.108,0.604c0.113,0.238,0.253,0.357,0.419,0.357c0.103,0,0.434,0,0.992,0
		c0.559,0,1.256-0.005,2.094-0.016c0.837-0.01,1.772-0.02,2.807-0.031c1.034-0.01,2.078-0.016,3.132-0.016
		c1.055,0,2.078-0.005,3.071-0.016c0.992-0.01,1.866-0.016,2.621-0.016c0.754,0,1.349,0.005,1.783,0.016
		c0.435,0.011,0.621,0.026,0.559,0.046l-1.551,5.242h-22.92c-0.248,0-0.517-0.041-0.807-0.124c-0.29-0.083-0.574-0.196-0.853-0.341
		c-0.279-0.145-0.533-0.31-0.76-0.496s-0.414-0.382-0.558-0.589c-0.29-0.455-0.548-0.961-0.775-1.52
		c-0.228-0.559-0.258-1.096-0.093-1.613L213.944,32.467z"/>
	<path id="XMLID_55_" class="st1" d="M254.821,32.467c-0.724,2.688-1.375,5.118-1.954,7.289c-0.248,0.931-0.491,1.84-0.729,2.729
		s-0.455,1.695-0.651,2.419c-0.197,0.724-0.362,1.329-0.497,1.814c-0.135,0.486-0.212,0.771-0.232,0.853
		c-0.145,0.476-0.099,0.827,0.14,1.054c0.237,0.228,0.501,0.341,0.791,0.341h6.979l5.242-16.5h6.203c0.434,0,0.791,0.093,1.07,0.279
		c0.279,0.186,0.485,0.434,0.62,0.744c0.134,0.311,0.186,0.667,0.155,1.07c-0.031,0.403-0.15,0.822-0.357,1.256l-5.831,18.361
		h-22.176c-0.538,0.021-0.998-0.041-1.38-0.186c-0.383-0.145-0.688-0.352-0.915-0.62c-0.228-0.269-0.372-0.579-0.434-0.931
		c-0.062-0.352-0.052-0.734,0.031-1.147c0.869-3.329,1.654-6.327,2.357-8.994c0.311-1.137,0.61-2.264,0.899-3.381
		s0.559-2.125,0.807-3.024s0.455-1.659,0.62-2.28c0.166-0.62,0.279-1.002,0.341-1.147H254.821z"/>
	<path id="XMLID_53_" class="st1" d="M271.817,54.178l6.979-21.71h23.447c0.33,0,0.637,0.083,0.916,0.248
		c0.279,0.166,0.527,0.393,0.744,0.683s0.396,0.625,0.543,1.008c0.145,0.383,0.258,0.781,0.34,1.194
		c0.041,0.207,0.037,0.491-0.016,0.853c-0.051,0.362-0.129,0.76-0.232,1.194s-0.232,0.899-0.387,1.396
		c-0.156,0.496-0.307,0.993-0.449,1.489c-0.373,1.137-0.807,2.368-1.303,3.691l-1.117,1.768c-0.166,0.248-0.398,0.455-0.697,0.621
		c-0.301,0.166-0.564,0.331-0.791,0.496c-0.166,0.104-0.367,0.166-0.605,0.186c-0.238,0.021-0.512,0.062-0.822,0.124
		c-0.062,0.021-0.062,0.129,0,0.326c0.062,0.197,0.166,0.455,0.31,0.775c0.145,0.321,0.326,0.682,0.543,1.085
		s0.439,0.812,0.666,1.225c0.539,0.993,1.18,2.109,1.924,3.35h-9.987l-3.567-6.854h-1.985l1.551-5.179l6.482-0.093l1.365-4.125
		h-8.591l-5.086,16.252H271.817z"/>
	<path id="XMLID_51_" class="st1" d="M305.529,54.178l6.358-21.71c1.716,0.021,3.256,0.031,4.621,0.031c0.578,0,1.147,0,1.705,0
		c0.559,0,1.055,0,1.489,0s0.785,0,1.055,0c0.269,0,0.403-0.01,0.403-0.031c-0.394,1.22-0.745,2.342-1.055,3.365
		c-0.311,1.023-0.662,2.182-1.055,3.474c-0.393,1.292-0.796,2.621-1.21,3.985c-0.992,3.185-2.099,6.813-3.318,10.886H305.529z"/>
	<path id="XMLID_49_" class="st1" d="M323.084,32.467c5.024,0.021,9.521,0.031,13.491,0.031c1.675,0,3.323,0,4.947,0
		c1.623,0,3.065,0,4.326,0s2.28,0,3.056,0s1.162-0.01,1.162-0.031c-0.124,0.331-0.232,0.641-0.325,0.931s-0.201,0.62-0.325,0.992
		c-0.124,0.373-0.249,0.755-0.373,1.148c-0.289,0.91-0.62,1.954-0.992,3.132h-8.963c-0.27,0.868-0.512,1.665-0.729,2.388
		c-0.217,0.724-0.47,1.551-0.76,2.481c-0.289,0.931-0.579,1.882-0.868,2.854c-0.683,2.275-1.469,4.869-2.357,7.785h-8.994L330,38.67
		h-8.963L323.084,32.467z"/>
	<path id="XMLID_46_" class="st1" d="M370.908,32.467h11.507l-21.09,21.71h-9.708L370.908,32.467z M355.898,45.37l-3.133-12.902
		h8.777c0.248,0,0.496,0.057,0.744,0.171s0.47,0.264,0.667,0.45c0.196,0.186,0.367,0.398,0.512,0.636s0.248,0.47,0.311,0.698
		l0.496,2.016L355.898,45.37z"/>
</g>
<g id="XMLID_42_">
	<polygon id="XMLID_44_" class="st1" points="31.031,0 19.288,33.965 22.78,37.435 32.71,11.405 36.398,17.271 27.077,41.704 
		29.717,44.329 38.798,20.526 42.485,26.392 34.014,48.598 39.629,54.178 50.793,27.604 	"/>
	<polygon id="XMLID_43_" class="st1" points="33.933,48.809 22.41,54.573 19,50.038 29.533,44.812 29.717,44.329 27.077,41.704 
		26.798,42.435 16.805,47.434 13.398,42.904 22.398,38.438 22.78,37.435 19.288,33.965 0,41.875 18.151,64.226 39.629,54.178 
		34.014,48.598 	"/>
</g>
</svg>