<!-- Generator: Adobe Illustrator 19.0.0, SVG Export Plug-In  -->
<svg version="1.1"
	 xmlns="http://www.w3.org/2000/svg" xmlns:xlink="http://www.w3.org/1999/xlink" xmlns:a="http://ns.adobe.com/AdobeSVGViewerExtensions/3.0/"
	 x="0px" y="0px" width="585.882px" height="295.739px" viewBox="0 0 585.882 295.739"
	 style="enable-background:new 0 0 585.882 295.739;" xml:space="preserve">
<style type="text/css">
	.st0{fill:#0071BB;}
	.st1{fill:#008DD2;}
	.st2{fill:#FFFFFF;}
	.st3{fill:#6D6E71;}
</style>
<defs>
</defs>
<g id="XMLID_69_">
	<g id="XMLID_73_">
		<polyline id="XMLID_76_" class="st0" points="272.252,114.882 207.012,141.636 268.405,217.238 341.051,183.25 		"/>
		<polyline id="XMLID_75_" class="st1" points="341.051,183.25 378.812,93.369 311.97,0 272.252,114.882 		"/>
		<polygon id="XMLID_74_" class="st0" points="285.751,238.261 285.811,238.212 285.653,238.14 		"/>
	</g>
	<g id="XMLID_70_">
		<polygon id="XMLID_72_" class="st2" points="271.276,169.249 282.813,184.588 321.787,165.09 350.713,89.267 338.241,69.427 
			306.904,151.572 		"/>
		<polygon id="XMLID_71_" class="st2" points="263.852,160.441 297.652,143.532 330.123,58.416 317.651,38.576 282.769,130.014 
			252.328,145.118 		"/>
	</g>
</g>
<g id="XMLID_46_">
	<path id="XMLID_67_" class="st3" d="M0,295.739l2.217-10.446h18.382c0.311,0.079,0.729-0.126,1.254-0.613
		c0.525-0.486,0.885-1.06,1.08-1.721c0.039-0.117,0.205-0.613,0.496-1.488c0.292-0.875,0.661-1.984,1.109-3.326
		c0.447-1.342,0.953-2.85,1.517-4.522c0.563-1.672,1.138-3.365,1.722-5.077c1.361-4.045,2.917-8.616,4.668-13.713h16.631
		l-9.22,31.278c-0.273,0.856-0.604,1.838-0.992,2.947c-0.389,1.109-0.856,2.15-1.4,3.122c-0.545,0.973-1.177,1.8-1.896,2.48
		c-0.721,0.681-1.527,1.021-2.422,1.021L0,295.739z"/>
	<path id="XMLID_65_" class="st3" d="M48.201,295.739l2.217-10.446H68.8c0.311,0.079,0.729-0.126,1.254-0.613
		c0.525-0.486,0.885-1.06,1.08-1.721c0.039-0.117,0.205-0.613,0.496-1.488c0.292-0.875,0.661-1.984,1.109-3.326
		c0.447-1.342,0.953-2.85,1.517-4.522c0.563-1.672,1.138-3.365,1.722-5.077c1.361-4.045,2.917-8.616,4.668-13.713h16.631
		l-9.22,31.278c-0.273,0.856-0.604,1.838-0.992,2.947c-0.389,1.109-0.856,2.15-1.4,3.122c-0.545,0.973-1.177,1.8-1.896,2.48
		c-0.721,0.681-1.527,1.021-2.422,1.021L48.201,295.739z"/>
	<path id="XMLID_63_" class="st3" d="M191.346,287.393c-0.233,0.934-0.662,1.888-1.284,2.859c-0.623,0.973-1.352,1.858-2.188,2.655
		c-0.837,0.798-1.731,1.459-2.685,1.984c-0.954,0.525-1.877,0.788-2.772,0.788h-51.061l2.509-8.287h36.355
		c0.934,0,1.789-0.262,2.568-0.788c0.778-0.525,1.439-1.157,1.984-1.896c0.272-0.35,0.535-0.846,0.788-1.488
		c0.252-0.642,0.476-1.293,0.671-1.955c0.194-0.739,0.389-1.537,0.583-2.393h-29.877c-1.362,0-2.695-0.136-3.998-0.409
		c-1.304-0.271-2.403-0.7-3.297-1.284c-0.896-0.583-1.498-1.322-1.809-2.217c-0.312-0.895-0.137-1.964,0.525-3.21l2.918-9.745
		c0.35-1.361,0.943-2.499,1.78-3.414c0.836-0.914,1.789-1.653,2.859-2.218c1.069-0.563,2.217-0.963,3.443-1.196
		s2.402-0.35,3.531-0.35h48.201l-2.626,8.753l-32.212,0.058c-1.868-0.077-3.297,0.098-4.289,0.525
		c-0.992,0.429-1.722,1.206-2.188,2.334l-1.284,4.202h29.761c0.972,0,1.906,0.087,2.801,0.263c0.895,0.175,1.663,0.487,2.305,0.934
		c0.642,0.448,1.108,1.021,1.4,1.722s0.301,1.576,0.029,2.626L191.346,287.393z"/>
	<path id="XMLID_60_" class="st3" d="M210.603,254.89l51.644-0.059l-3.093,10.212h-32.97l-5.719,19.023
		c-0.078,0.312-0.01,0.691,0.205,1.138c0.213,0.448,0.476,0.671,0.788,0.671c0.194,0,0.817,0,1.867,0
		c1.051,0,2.364-0.009,3.939-0.029c1.575-0.019,3.335-0.038,5.281-0.058c1.945-0.019,3.91-0.029,5.894-0.029s3.91-0.009,5.777-0.029
		c1.867-0.019,3.51-0.029,4.931-0.029c1.42,0,2.539,0.01,3.355,0.029c0.817,0.02,1.167,0.049,1.05,0.088l-2.917,9.862H207.51
		c-0.467,0-0.973-0.078-1.517-0.233c-0.545-0.155-1.08-0.369-1.605-0.642c-0.525-0.271-1.002-0.583-1.43-0.934
		c-0.429-0.35-0.779-0.719-1.05-1.109c-0.545-0.855-1.031-1.809-1.459-2.859c-0.429-1.05-0.486-2.062-0.175-3.034L210.603,254.89z
		 M228.984,270.062h26.202l-3.385,9.103h-26.085L228.984,270.062z"/>
	<path id="XMLID_58_" class="st3" d="M268.899,254.831h51.469l-3.093,10.212h-32.97l-5.719,19.023
		c-0.078,0.312-0.01,0.691,0.205,1.138c0.213,0.448,0.476,0.671,0.788,0.671c0.194,0,0.817,0,1.867,0
		c1.051,0,2.364-0.009,3.939-0.029c1.575-0.019,3.335-0.038,5.281-0.058c1.945-0.019,3.91-0.029,5.894-0.029s3.91-0.009,5.777-0.029
		c1.867-0.019,3.51-0.029,4.931-0.029c1.42,0,2.539,0.01,3.355,0.029c0.817,0.02,1.167,0.049,1.05,0.088l-2.917,9.862h-43.125
		c-0.467,0-0.973-0.078-1.517-0.233c-0.545-0.155-1.08-0.369-1.605-0.642c-0.525-0.271-1.002-0.583-1.43-0.934
		c-0.429-0.35-0.779-0.719-1.05-1.109c-0.545-0.855-1.031-1.809-1.459-2.859c-0.429-1.05-0.486-2.062-0.175-3.034L268.899,254.831z"
		/>
	<path id="XMLID_56_" class="st3" d="M345.811,254.831c-1.362,5.058-2.588,9.628-3.677,13.713c-0.467,1.751-0.924,3.463-1.371,5.135
		c-0.448,1.673-0.856,3.19-1.226,4.552c-0.37,1.362-0.681,2.5-0.934,3.414c-0.253,0.915-0.399,1.45-0.438,1.604
		c-0.273,0.896-0.185,1.557,0.262,1.984c0.447,0.429,0.943,0.642,1.488,0.642h13.13l9.862-31.045h11.671
		c0.817,0,1.488,0.175,2.013,0.525c0.525,0.35,0.914,0.817,1.167,1.4c0.252,0.583,0.35,1.254,0.292,2.013
		c-0.059,0.759-0.283,1.546-0.672,2.363L366.41,295.68h-41.724c-1.012,0.038-1.877-0.078-2.597-0.35
		c-0.72-0.272-1.294-0.661-1.721-1.167c-0.429-0.505-0.7-1.089-0.817-1.751c-0.117-0.661-0.098-1.38,0.058-2.159
		c1.634-6.263,3.112-11.904,4.435-16.923c0.583-2.139,1.147-4.26,1.692-6.361c0.544-2.101,1.05-3.997,1.517-5.689
		s0.855-3.122,1.167-4.289c0.311-1.167,0.525-1.887,0.642-2.159H345.811z"/>
	<path id="XMLID_54_" class="st3" d="M377.789,295.68l13.129-40.849h44.117c0.621,0,1.197,0.156,1.721,0.467
		c0.525,0.312,0.992,0.74,1.4,1.284c0.41,0.545,0.75,1.177,1.021,1.897c0.271,0.72,0.486,1.469,0.643,2.247
		c0.078,0.389,0.068,0.924-0.029,1.604c-0.098,0.681-0.244,1.43-0.438,2.247c-0.195,0.817-0.438,1.692-0.73,2.626
		c-0.291,0.934-0.574,1.867-0.846,2.801c-0.699,2.14-1.518,4.455-2.451,6.944l-2.1,3.326c-0.312,0.467-0.75,0.856-1.312,1.167
		c-0.564,0.312-1.061,0.623-1.488,0.934c-0.312,0.195-0.691,0.312-1.139,0.351c-0.447,0.039-0.963,0.117-1.547,0.233
		c-0.115,0.039-0.115,0.243,0,0.612c0.117,0.371,0.311,0.856,0.584,1.459c0.271,0.604,0.613,1.284,1.021,2.042
		s0.826,1.527,1.254,2.305c1.012,1.867,2.219,3.968,3.619,6.302h-18.791l-6.711-12.896h-3.734l2.918-9.745l12.195-0.175l2.568-7.761
		H406.5l-9.57,30.578H377.789z"/>
	<path id="XMLID_52_" class="st3" d="M441.221,295.68l11.963-40.849c3.229,0.039,6.127,0.059,8.694,0.059c1.089,0,2.159,0,3.21,0
		s1.984,0,2.801,0c0.817,0,1.479,0,1.984,0c0.505,0,0.759-0.02,0.759-0.059c-0.739,2.296-1.4,4.406-1.984,6.332
		c-0.583,1.926-1.245,4.105-1.984,6.536c-0.739,2.432-1.498,4.931-2.275,7.499c-1.867,5.991-3.949,12.819-6.244,20.482H441.221z"/>
	<path id="XMLID_50_" class="st3" d="M474.25,254.831c9.453,0.039,17.915,0.059,25.385,0.059c3.15,0,6.253,0,9.308,0
		c3.053,0,5.767,0,8.14,0s4.29,0,5.748,0c1.459,0,2.188-0.02,2.188-0.059c-0.233,0.623-0.438,1.207-0.612,1.75
		c-0.175,0.545-0.38,1.167-0.613,1.868s-0.467,1.42-0.7,2.159c-0.545,1.712-1.167,3.676-1.867,5.894h-16.864
		c-0.506,1.634-0.963,3.132-1.371,4.494c-0.409,1.362-0.886,2.917-1.43,4.668c-0.546,1.75-1.09,3.541-1.635,5.369
		c-1.283,4.28-2.763,9.162-4.435,14.647h-16.923l8.694-29.178h-16.864L474.25,254.831z"/>
	<path id="XMLID_47_" class="st3" d="M564.232,254.831h21.65l-39.682,40.849h-18.266L564.232,254.831z M535.989,279.107
		l-5.895-24.276h16.515c0.467,0,0.934,0.107,1.4,0.321c0.467,0.214,0.885,0.496,1.255,0.846c0.369,0.35,0.69,0.75,0.963,1.196
		c0.271,0.448,0.467,0.886,0.584,1.313l0.934,3.793L535.989,279.107z"/>
</g>
</svg>